<svg width="296" height="249" viewBox="0 0 296 249" fill="none" xmlns="http://www.w3.org/2000/svg">
<path d="M48.1427 187.55C48.1427 187.55 34.742 190.446 19.891 186.639C5.03992 182.831 1.23779 197.683 1.23779 197.683C1.23779 197.683 3.29426 178.889 21.1135 178.32C22.8384 178.263 24.553 178.527 26.2365 178.889C28.7488 179.433 35.2756 178.708 42.3515 160.739" fill="#8B74A4"/>
<path d="M44.8067 126.39C44.8067 126.39 32.1002 121.231 21.9733 109.721C11.8464 98.2109 0.336426 108.338 0.336426 108.338C0.336426 108.338 12.6234 93.9685 27.6661 103.536C29.1217 104.463 30.3908 105.644 31.5822 106.893C33.3537 108.757 39.1502 111.834 55.1201 100.972" fill="#8B74A4"/>
<path d="M76.5031 73.9791C76.5031 73.9791 68.9092 62.5624 67.0289 47.3487C65.1434 32.1351 49.9297 34.0154 49.9297 34.0154C49.9297 34.0154 68.1736 29.0633 75.2133 45.4477C75.897 47.0327 76.2752 48.7266 76.5549 50.4256C76.9693 52.9638 80.0255 58.7706 99.3365 58.7965" fill="#8B74A4"/>
<path d="M132.219 48.5295C132.219 48.5295 132.38 34.8181 139.394 21.1895C146.407 7.55571 132.773 0.541992 132.773 0.541992C132.773 0.541992 150.639 6.72691 147.226 24.2301C146.894 25.924 146.257 27.535 145.527 29.0993C144.439 31.4303 143.693 37.952 159.637 48.8455" fill="#8B74A4"/>
<path d="M192.587 58.8843C192.587 58.8843 200.44 47.6437 213.918 40.3347C227.397 33.0257 220.082 19.5474 220.082 19.5474C220.082 19.5474 231.359 34.7196 218.679 47.2604C217.451 48.4725 216.016 49.4463 214.535 50.3269C212.323 51.6375 208.034 56.6051 215.068 74.59" fill="#8B74A4"/>
<path d="M236.633 101.448C236.633 101.448 249.453 96.5895 264.703 98.1384C279.953 99.6872 281.502 84.4373 281.502 84.4373C281.502 84.4373 282.268 103.329 264.734 106.546C263.035 106.856 261.305 106.856 259.58 106.748C257.011 106.587 250.67 108.276 246.35 127.095" fill="#8B74A4"/>
<path d="M249.049 161.428C249.049 161.428 262.382 164.634 274.11 174.507C285.837 184.38 295.71 172.653 295.71 172.653C295.71 172.653 285.702 188.695 269.401 181.474C267.821 180.775 266.391 179.796 265.029 178.734C262.999 177.154 256.808 174.979 242.636 188.094" fill="#8B74A4"/>
<path d="M145.102 109.71L144.242 112.016L144.237 112.026L142.009 117.962H141.605L144.185 112.119L144.19 112.104L144.226 112.026V112.016L145.102 109.71Z" fill="#8B74A4"/>
<path d="M145.05 92.5024L145.029 92.5541L145.014 92.5024H145.05Z" fill="#8B74A4"/>
<path d="M160.497 138.035L160.336 138.459L150.391 164.981L145.858 151.042L140.984 138.04V138.035L150.738 112.026V112.015L151.152 110.917L151.173 110.865L151.556 112.015V112.026L151.634 112.254L158.057 131.528L158.689 133.207L160.497 138.035Z" fill="#8B74A4"/>
<path d="M145.029 92.5541L145.014 92.5024H145.05L145.029 92.5541Z" fill="#8B74A4"/>
<path d="M144.226 112.016L145.102 109.71L144.242 112.016H144.226Z" fill="#8B74A4"/>
<path d="M148.096 101.738L148.117 101.795L145.262 109.301L148.096 101.738Z" fill="#8B74A4"/>
<path d="M151.173 110.865L151.556 112.015H150.738L151.152 110.917L151.173 110.865Z" fill="#8B74A4"/>
<path d="M171.069 112.016H171.033L164.527 92.5024H164.563L170.686 110.866L171.069 112.016Z" fill="#8B74A4"/>
<path d="M160.497 138.035L160.336 138.459L151.535 112.067L151.52 112.026V112.015L151.152 110.917L151.173 110.865L151.556 112.015V112.026L151.634 112.254L160.497 138.035Z" fill="#8B74A4"/>
<path d="M255.327 196.569L243.755 216.082C243.34 216.03 205.728 216.082 205.728 216.082L199.388 196.569H255.327Z" fill="#8B74A4"/>
<path d="M145.014 92.5024H145.05L145.029 92.5541L145.014 92.5024Z" fill="#8B74A4"/>
<path d="M171.033 112.016H151.556L151.173 110.866L151.152 110.917L150.738 112.016H144.242L145.102 109.71L145.262 109.301L148.117 101.795L151.644 92.5024H164.527L171.033 112.016Z" fill="#8B74A4"/>
<path d="M149.624 112.026L146.842 117.962H141.605L144.185 112.119L144.19 112.104L144.226 112.026H149.624Z" fill="#8B74A4"/>
<path d="M241.957 147.752C241.957 165.618 236.814 182.324 227.878 196.569H205.677C216.907 183.329 223.641 166.39 223.641 147.939C223.641 125.437 213.623 105.193 197.668 91.1505C183.75 78.8946 165.314 71.3577 145.05 71.1453C124.786 71.3525 106.35 78.8946 92.4316 91.1505C76.4772 105.193 66.4591 125.437 66.4591 147.939C66.4591 166.39 73.193 183.329 84.4233 196.569H62.2218C53.2915 182.324 48.1426 165.618 48.1426 147.752C48.1426 108.783 72.6077 75.3307 107.505 60.9718C119.046 56.2165 131.727 53.5644 145.05 53.4763C158.368 53.5644 171.054 56.2165 182.595 60.9718C217.492 75.3307 241.957 108.783 241.957 147.752Z" fill="#8B74A4"/>
<path d="M186.205 216.082H131.235L138.549 196.569H179.704L186.205 216.082Z" fill="#8B74A4"/>
<path d="M119.29 247.918L119.036 248.602H74.7988L82.113 229.089H113.017L119.134 247.452L119.29 247.918Z" fill="#8B74A4"/>
<path d="M216.56 248.602H197.047L179.704 196.569L160.336 138.46L160.497 138.035L151.634 112.254L151.556 112.026V112.016H171.033L216.56 248.602Z" fill="#8B74A4"/>
<path d="M160.497 138.035L160.336 138.459L150.391 164.981L138.549 196.569L131.235 216.082L119.29 247.918L119.036 248.602H97.0417L104.796 229.089L139.352 137.17L148.427 112.021H155.824L160.497 138.035Z" fill="#8B74A4"/>
<path d="M151.644 92.5024L148.117 101.795L148.096 101.738L145.262 109.301L145.102 109.71L144.226 112.016V112.026L144.19 112.104L144.185 112.119L141.605 117.962H142.009L141.227 120.045V120.055L132.043 144.536L112.53 196.569L105.216 216.082L100.336 229.089L93.0169 248.602H73.5039L85.7028 216.082H45.9877L34.4829 196.569H93.0169L132.043 92.5024H145.014L145.029 92.5542L145.05 92.5024H151.644Z" fill="#8B74A4"/>
</svg>
